# xmcd CD database file
#
# Track frame offsets:
#	150
#	44141
#	80314
#	133541
#	165508
#
# Disc length: 2810 seconds
#
# Revision: 4
# Processed by: cddbd v1.5.2PL0 Copyright (c) Steve Scherf et al.
# Submitted via: CDex 1.50
#
DISCID=390af805
DTITLE=Esbjörn Svensson Trio - e.s.t. live in gothenburg CD01
DYEAR=2019
DGENRE=Jazz
TTITLE0=Dating
TTITLE1=Somewhere Else Before
TTITLE2=The Rube Thing
TTITLE3=From Gagarin's Point Of View
TTITLE4=The Wraith
EXTD=YEAR: 2019
EXTT0=
EXTT1=
EXTT2=
EXTT3=
EXTT4=
PLAYORDER=
